<svg width="32" height="32" viewBox="0 0 32 32" fill="none" xmlns="http://www.w3.org/2000/svg">
<rect x="0.5" y="0.5" width="31" height="31" rx="3.5" stroke="#414141"/>
<path d="M11.3333 12.6666C11.3333 12.1144 11.781 11.6666 12.3333 11.6666C12.8856 11.6666 13.3333 12.1144 13.3333 12.6666C13.3333 13.2189 12.8856 13.6666 12.3333 13.6666C11.781 13.6666 11.3333 13.2189 11.3333 12.6666ZM12.3333 10.3333C11.0447 10.3333 10 11.378 10 12.6666C10 13.9553 11.0447 15 12.3333 15C13.622 15 14.6667 13.9553 14.6667 12.6666C14.6667 11.378 13.622 10.3333 12.3333 10.3333ZM16 13.3333H21.3333V12H16V13.3333ZM18.6667 19.3333C18.6667 18.781 19.1144 18.3333 19.6667 18.3333C20.2189 18.3333 20.6667 18.781 20.6667 19.3333C20.6667 19.8856 20.2189 20.3333 19.6667 20.3333C19.1144 20.3333 18.6667 19.8856 18.6667 19.3333ZM19.6667 17C18.378 17 17.3333 18.0446 17.3333 19.3333C17.3333 20.622 18.378 21.6666 19.6667 21.6666C20.9553 21.6666 22 20.622 22 19.3333C22 18.0446 20.9553 17 19.6667 17ZM10.6667 18.6666V20H16V18.6666H10.6667Z" fill="#BDBDBD"/>
</svg>
