<svg width="16" height="16" viewBox="0 0 16 16" fill="none" xmlns="http://www.w3.org/2000/svg">
<path d="M11.333 4.00016H14.6663V5.3335H13.333V14.0002C13.333 14.3684 13.0345 14.6668 12.6663 14.6668H3.33301C2.96482 14.6668 2.66634 14.3684 2.66634 14.0002V5.3335H1.33301V4.00016H4.66634V2.00016C4.66634 1.63198 4.96482 1.3335 5.33301 1.3335H10.6663C11.0345 1.3335 11.333 1.63198 11.333 2.00016V4.00016ZM11.9997 5.3335H3.99967V13.3335H11.9997V5.3335ZM5.99967 7.3335H7.33301V11.3335H5.99967V7.3335ZM8.66634 7.3335H9.99967V11.3335H8.66634V7.3335ZM5.99967 2.66683V4.00016H9.99967V2.66683H5.99967Z" fill="#BDBDBD"/>
</svg>
