<svg width="16" height="16" viewBox="0 0 16 16" fill="none" xmlns="http://www.w3.org/2000/svg">
<path d="M4.15689 4.30211C3.23417 5.26091 2.66683 6.56416 2.66683 7.99992C2.66683 10.9455 5.05464 13.3333 8.00016 13.3333C8.7207 13.3333 9.4079 13.1904 10.0349 12.9314C10.1116 12.4311 9.94336 11.951 9.87456 11.783C9.7215 11.4099 9.21623 10.7721 8.37276 9.88712C8.14763 9.65045 8.1621 9.46892 8.24256 8.92945L8.25183 8.86852C8.3065 8.49899 8.39823 8.28052 9.64163 8.08312C10.2733 7.98298 10.4394 8.23545 10.6697 8.58505C10.6952 8.62378 10.7206 8.66178 10.7467 8.69985C10.9654 9.01972 11.1275 9.09285 11.3723 9.20419C11.482 9.25392 11.6188 9.31665 11.8022 9.42085C12.2369 9.66925 12.2369 9.94972 12.2369 10.5647V10.6345C12.2369 10.8955 12.2114 11.1247 12.1712 11.3239C12.8987 10.4123 13.3335 9.25685 13.3335 7.99992C13.3335 5.80051 12.0022 3.91205 10.1014 3.09647C9.73263 3.34534 9.2267 3.69809 9.05016 3.93992C8.9599 4.0635 8.8323 4.69436 8.4173 4.74643C8.30856 4.76007 8.1627 4.75051 8.00816 4.74057C7.59383 4.71364 7.02696 4.67729 6.8455 5.16989C6.7303 5.48205 6.71003 6.32955 7.08276 6.76945C7.14243 6.83972 7.15396 6.96972 7.11343 7.11558C7.06016 7.30712 6.95256 7.42365 6.91903 7.44772C6.85476 7.41078 6.72656 7.26199 6.63975 7.16072C6.43052 6.91759 6.16953 6.61481 5.83214 6.52109C5.70946 6.48714 5.5746 6.45903 5.44382 6.43149C5.07776 6.35476 4.66312 6.26748 4.56678 6.06193C4.49644 5.91139 4.49675 5.70406 4.49702 5.48501C4.49702 5.20739 4.49702 4.89345 4.36102 4.58829C4.30847 4.47019 4.23809 4.37622 4.15689 4.30211ZM8.00016 14.6666C4.31826 14.6666 1.3335 11.6818 1.3335 7.99992C1.3335 4.31802 4.31826 1.33325 8.00016 1.33325C11.682 1.33325 14.6668 4.31802 14.6668 7.99992C14.6668 11.6818 11.682 14.6666 8.00016 14.6666Z" fill="#808080"/>
</svg>
