<svg width="16" height="16" viewBox="0 0 16 16" fill="none" xmlns="http://www.w3.org/2000/svg">
<path d="M3.33333 4.66671C3.33333 4.11442 3.78105 3.66671 4.33333 3.66671C4.88562 3.66671 5.33333 4.11442 5.33333 4.66671C5.33333 5.21899 4.88562 5.66671 4.33333 5.66671C3.78105 5.66671 3.33333 5.21899 3.33333 4.66671ZM4.33333 2.33337C3.04467 2.33337 2 3.37804 2 4.66671C2 5.95537 3.04467 7.00004 4.33333 7.00004C5.622 7.00004 6.66667 5.95537 6.66667 4.66671C6.66667 3.37804 5.622 2.33337 4.33333 2.33337ZM8 5.33337H13.3333V4.00004H8V5.33337ZM10.6667 11.3334C10.6667 10.7811 11.1144 10.3334 11.6667 10.3334C12.2189 10.3334 12.6667 10.7811 12.6667 11.3334C12.6667 11.8856 12.2189 12.3334 11.6667 12.3334C11.1144 12.3334 10.6667 11.8856 10.6667 11.3334ZM11.6667 9.00004C10.378 9.00004 9.33333 10.0447 9.33333 11.3334C9.33333 12.622 10.378 13.6667 11.6667 13.6667C12.9553 13.6667 14 12.622 14 11.3334C14 10.0447 12.9553 9.00004 11.6667 9.00004ZM2.66667 10.6667V12H8V10.6667H2.66667Z" fill="#BDBDBD"/>
</svg>
