<svg width="24" height="24" viewBox="0 0 24 24" fill="none" xmlns="http://www.w3.org/2000/svg">
<rect width="24" height="24" rx="2" fill="#414141"/>
<path d="M12.0596 15.8662H16.0596V16.8662H12.0596C9.29815 16.8662 7.05957 14.6276 7.05957 11.8662C7.05957 9.10479 9.29815 6.86621 12.0596 6.86621C14.821 6.86621 17.0596 9.10479 17.0596 11.8662C17.0596 12.9918 16.6876 14.0306 16.0599 14.8662H14.7054C15.5358 14.1333 16.0596 13.0609 16.0596 11.8662C16.0596 9.65707 14.2687 7.86621 12.0596 7.86621C9.85043 7.86621 8.05957 9.65707 8.05957 11.8662C8.05957 14.0754 9.85043 15.8662 12.0596 15.8662ZM12.0596 10.8662C11.5073 10.8662 11.0596 10.4185 11.0596 9.86621C11.0596 9.31393 11.5073 8.86621 12.0596 8.86621C12.6119 8.86621 13.0596 9.31393 13.0596 9.86621C13.0596 10.4185 12.6119 10.8662 12.0596 10.8662ZM10.0596 12.8662C9.50729 12.8662 9.05957 12.4185 9.05957 11.8662C9.05957 11.3139 9.50729 10.8662 10.0596 10.8662C10.6119 10.8662 11.0596 11.3139 11.0596 11.8662C11.0596 12.4185 10.6119 12.8662 10.0596 12.8662ZM14.0596 12.8662C13.5073 12.8662 13.0596 12.4185 13.0596 11.8662C13.0596 11.3139 13.5073 10.8662 14.0596 10.8662C14.6119 10.8662 15.0596 11.3139 15.0596 11.8662C15.0596 12.4185 14.6119 12.8662 14.0596 12.8662ZM12.0596 14.8662C11.5073 14.8662 11.0596 14.4185 11.0596 13.8662C11.0596 13.3139 11.5073 12.8662 12.0596 12.8662C12.6119 12.8662 13.0596 13.3139 13.0596 13.8662C13.0596 14.4185 12.6119 14.8662 12.0596 14.8662Z" fill="#BDBDBD"/>
</svg>
