<svg width="32" height="32" viewBox="0 0 32 32" fill="none" xmlns="http://www.w3.org/2000/svg">
<rect width="32" height="32" rx="4" fill="#262626"/>
<mask id="mask0_879_2180" style="mask-type:luminance" maskUnits="userSpaceOnUse" x="10" y="10" width="12" height="12">
<path d="M21.2 10H10.8C10.3582 10 10 10.3582 10 10.8V21.2C10 21.6418 10.3582 22 10.8 22H21.2C21.6418 22 22 21.6418 22 21.2V10.8C22 10.3582 21.6418 10 21.2 10Z" fill="white"/>
</mask>
<g mask="url(#mask0_879_2180)">
<path d="M12.6 9.8999H10V12.4999H12.6V9.8999Z" fill="#808080"/>
<path d="M15.8 9.8999H13.2V12.4999H15.8V9.8999Z" fill="#808080"/>
<path d="M19 9.8999H16.4V12.4999H19V9.8999Z" fill="#808080"/>
<path d="M22.2 9.8999H19.6V12.4999H22.2V9.8999Z" fill="#808080"/>
<path d="M12.6 13.0999H10V15.6999H12.6V13.0999Z" fill="#808080"/>
<path d="M15.8 13.0999H13.2V15.6999H15.8V13.0999Z" fill="#808080"/>
<path d="M19 13.0999H16.4V15.6999H19V13.0999Z" fill="#808080"/>
<path d="M22.2 13.0999H19.6V15.6999H22.2V13.0999Z" fill="#808080"/>
<path d="M12.6 16.2999H10V18.8999H12.6V16.2999Z" fill="#808080"/>
<path d="M15.8 16.2999H13.2V18.8999H15.8V16.2999Z" fill="#808080"/>
<path d="M19 16.2999H16.4V18.8999H19V16.2999Z" fill="#808080"/>
<path d="M22.2 16.2999H19.6V18.8999H22.2V16.2999Z" fill="#808080"/>
<path d="M12.6 19.4999H10V22.0999H12.6V19.4999Z" fill="#808080"/>
<path d="M15.8 19.4999H13.2V22.0999H15.8V19.4999Z" fill="#808080"/>
<path d="M19 19.4999H16.4V22.0999H19V19.4999Z" fill="#808080"/>
<path d="M22.2 19.4999H19.6V22.0999H22.2V19.4999Z" fill="#808080"/>
</g>
</svg>
