<svg width="32" height="32" viewBox="0 0 32 32" fill="none" xmlns="http://www.w3.org/2000/svg">
<rect width="32" height="32" rx="4" fill="#414141"/>
<path d="M10.0002 10C9.63198 10 9.3335 10.2985 9.3335 10.6667V13.3333H13.0002V10H10.0002ZM14.3335 10V13.3333H17.6668V10H14.3335ZM19.0002 10V13.3333H22.6668V10.6667C22.6668 10.2985 22.3684 10 22.0002 10H19.0002ZM22.6668 14.6667H19.0002V17.3333H22.6668V14.6667ZM22.6668 18.6667H19.0002V22H22.0002C22.3684 22 22.6668 21.7015 22.6668 21.3333V18.6667ZM17.6668 22V18.6667H14.3335V22H17.6668ZM13.0002 22V18.6667H9.3335V21.3333C9.3335 21.7015 9.63198 22 10.0002 22H13.0002ZM9.3335 17.3333H13.0002V14.6667H9.3335V17.3333ZM14.3335 14.6667H17.6668V17.3333H14.3335V14.6667Z" fill="white"/>
</svg>
