<svg width="16" height="16" viewBox="0 0 16 16" fill="none" xmlns="http://www.w3.org/2000/svg">
<path d="M11.3337 8.00004C11.7019 8.00004 12.0004 8.29851 12.0004 8.66671V14.6667H10.6671V9.33337H5.33376V14.6667H4.00043V8.66671C4.00043 8.29851 4.2989 8.00004 4.66709 8.00004H11.3337ZM8.00039 10.6667V12H6.66706V10.6667H8.00039ZM8.00039 4.00004C9.56639 4.00004 10.9221 4.89989 11.5789 6.21072L10.3861 6.80724C9.94833 5.93331 9.04446 5.33337 8.00039 5.33337C6.95639 5.33337 6.05255 5.93331 5.61475 6.80724L4.42197 6.21072C5.07869 4.89989 6.43447 4.00004 8.00039 4.00004ZM8.00039 1.33337C10.6105 1.33337 12.8703 2.83331 13.9647 5.01824L12.7721 5.61499C11.8965 3.86683 10.0887 2.66671 8.00039 2.66671C5.91221 2.66671 4.1043 3.86683 3.2288 5.61499L2.03613 5.01824C3.1306 2.83331 5.39035 1.33337 8.00039 1.33337Z" fill="#CCCCCC"/>
</svg>
