<svg width="16" height="16" viewBox="0 0 16 16" fill="none" xmlns="http://www.w3.org/2000/svg">
<g id="leaf-line">
<path id="Vector" d="M13.999 2V3.33333C13.999 9.7516 10.4173 12.6667 5.99902 12.6667L3.49417 12.6666C3.38606 13.2747 3.33236 13.938 3.33236 14.6667H1.99902C1.99902 13.7582 2.07616 12.9331 2.22953 12.1788C2.07586 11.3161 1.99902 10.1451 1.99902 8.66667C1.99902 4.98477 4.98379 2 8.66566 2C9.99899 2 11.3323 2.66667 13.999 2ZM8.66566 3.33333C5.72017 3.33333 3.33236 5.72115 3.33236 8.66667C3.33236 8.90827 3.33449 9.14073 3.33872 9.36393C4.17498 8.0456 5.39967 7.0032 7.00159 6.08784L7.66312 7.24547C5.75986 8.33307 4.49735 9.569 3.84918 11.3332L5.99902 11.3333C10.0091 11.3333 12.5798 8.6846 12.6636 3.59177C11.7489 3.68075 10.8991 3.624 9.85059 3.46673C9.08319 3.35161 8.93286 3.33333 8.66566 3.33333Z" fill="#2BDE88"/>
</g>
</svg>
