<svg width="16" height="16" viewBox="0 0 16 16" fill="none" xmlns="http://www.w3.org/2000/svg">
<g id="map-pin-user-line">
<path id="Vector" d="M11.3893 10.5414C13.1218 8.71277 13.0919 5.82567 11.2998 4.03354C9.4774 2.21109 6.52261 2.21109 4.70017 4.03354C2.90803 5.82567 2.87823 8.71277 4.61075 10.5414C5.31842 9.41524 6.5718 8.66671 8 8.66671C9.4282 8.66671 10.6816 9.41524 11.3893 10.5414ZM5.59023 11.5232L8 13.933L10.4098 11.5232C9.98167 10.6226 9.06353 10 8 10C6.93647 10 6.01833 10.6226 5.59023 11.5232ZM8 15.8186L3.75736 11.576C1.41421 9.23284 1.41421 5.43388 3.75736 3.09073C6.10051 0.747587 9.89947 0.747587 12.2427 3.09073C14.5858 5.43388 14.5858 9.23284 12.2427 11.576L8 15.8186ZM8 6.66671C8.3682 6.66671 8.66667 6.36823 8.66667 6.00004C8.66667 5.63185 8.3682 5.33337 8 5.33337C7.6318 5.33337 7.33333 5.63185 7.33333 6.00004C7.33333 6.36823 7.6318 6.66671 8 6.66671ZM8 8.00004C6.8954 8.00004 6 7.10464 6 6.00004C6 4.89547 6.8954 4.00004 8 4.00004C9.1046 4.00004 10 4.89547 10 6.00004C10 7.10464 9.1046 8.00004 8 8.00004Z" fill="#F04040"/>
</g>
</svg>
