<svg width="16" height="16" viewBox="0 0 16 16" fill="none" xmlns="http://www.w3.org/2000/svg">
<g id="remote-control-line">
<path id="Vector" d="M11.3337 8.00016C11.7019 8.00016 12.0004 8.29863 12.0004 8.66683V14.6668H10.6671V9.3335H5.33376V14.6668H4.00043V8.66683C4.00043 8.29863 4.2989 8.00016 4.66709 8.00016H11.3337ZM8.00039 10.6668V12.0002H6.66706V10.6668H8.00039ZM8.00039 4.00016C9.56639 4.00016 10.9221 4.90002 11.5789 6.21084L10.3861 6.80736C9.94833 5.93344 9.04446 5.3335 8.00039 5.3335C6.95639 5.3335 6.05255 5.93344 5.61475 6.80736L4.42197 6.21084C5.07869 4.90002 6.43447 4.00016 8.00039 4.00016ZM8.00039 1.3335C10.6105 1.3335 12.8703 2.83344 13.9647 5.01836L12.7721 5.61511C11.8965 3.86696 10.0887 2.66683 8.00039 2.66683C5.91221 2.66683 4.1043 3.86696 3.2288 5.61511L2.03613 5.01836C3.1306 2.83344 5.39035 1.3335 8.00039 1.3335Z" fill="#4C6AFF"/>
</g>
</svg>
