<svg width="16" height="16" viewBox="0 0 16 16" fill="none" xmlns="http://www.w3.org/2000/svg">
<g id="search-line">
<path id="Vector" d="M12.0208 11.0779L14.876 13.933L13.9332 14.8758L11.078 12.0207C10.0514 12.842 8.7495 13.3334 7.3335 13.3334C4.0215 13.3334 1.3335 10.6454 1.3335 7.33337C1.3335 4.02137 4.0215 1.33337 7.3335 1.33337C10.6455 1.33337 13.3335 4.02137 13.3335 7.33337C13.3335 8.74937 12.8422 10.0513 12.0208 11.0779ZM10.6833 10.5832C11.4985 9.74311 12.0002 8.59711 12.0002 7.33337C12.0002 4.75504 9.91183 2.66671 7.3335 2.66671C4.75516 2.66671 2.66683 4.75504 2.66683 7.33337C2.66683 9.91171 4.75516 12 7.3335 12C8.59723 12 9.74323 11.4984 10.5834 10.6832L10.6833 10.5832Z" fill="#BDBDBD"/>
</g>
</svg>
