<svg width="16" height="16" viewBox="0 0 16 16" fill="none" xmlns="http://www.w3.org/2000/svg">
<path d="M11.2895 5.97679C10.951 3.35724 8.71199 1.3335 6.00033 1.3335C3.05481 1.3335 0.666992 3.72131 0.666992 6.66683C0.666992 7.92843 1.10504 9.0877 1.83733 10.0009C2.376 10.6726 2.66721 11.417 2.66716 12.2042L2.66699 14.6668H8.66699L8.66766 12.6668H10.0003C10.7367 12.6668 11.3337 12.0699 11.3337 11.3335V9.38083L12.6399 8.8213C12.8687 8.7233 12.8886 8.4913 12.7898 8.33596L11.2895 5.97679ZM2.00033 6.66683C2.00033 4.45769 3.79119 2.66683 6.00033 2.66683C8.01653 2.66683 9.71133 4.16777 9.96706 6.14762L10.0051 6.44191L11.0335 8.0589L10.0003 8.50143V11.3335H7.33479L7.33413 13.3335H4.00041L4.00049 12.2044C4.00057 11.1116 3.60676 10.0762 2.87751 9.16676C2.31245 8.4621 2.00033 7.5901 2.00033 6.66683ZM14.1027 12.0684L12.9932 11.3288C13.6294 10.3763 14.0003 9.23156 14.0003 8.00023C14.0003 6.76883 13.6294 5.6241 12.9932 4.67164L14.1027 3.93197C14.8803 5.09607 15.3337 6.49519 15.3337 8.00023C15.3337 9.50523 14.8803 10.9043 14.1027 12.0684Z" fill="#BDBDBD"/>
</svg>
