<svg width="16" height="16" viewBox="0 0 16 16" fill="none" xmlns="http://www.w3.org/2000/svg">
<g id="sun-line" clip-path="url(#clip0_39_792)">
<path id="Vector" d="M8.00033 11.9998C5.79119 11.9998 4.00033 10.209 4.00033 7.99984C4.00033 5.7907 5.79119 3.99984 8.00033 3.99984C10.2095 3.99984 12.0003 5.7907 12.0003 7.99984C12.0003 10.209 10.2095 11.9998 8.00033 11.9998ZM8.00033 10.6665C9.47306 10.6665 10.667 9.47257 10.667 7.99984C10.667 6.52708 9.47306 5.33317 8.00033 5.33317C6.52757 5.33317 5.33366 6.52708 5.33366 7.99984C5.33366 9.47257 6.52757 10.6665 8.00033 10.6665ZM7.33366 0.666504H8.66699V2.6665H7.33366V0.666504ZM7.33366 13.3332H8.66699V15.3332H7.33366V13.3332ZM2.34347 3.28579L3.28628 2.34298L4.70049 3.7572L3.75769 4.7L2.34347 3.28579ZM11.3001 12.2425L12.243 11.2996L13.6572 12.7139L12.7144 13.6567L11.3001 12.2425ZM12.7144 2.34298L13.6572 3.28579L12.243 4.7L11.3001 3.7572L12.7144 2.34298ZM3.75769 11.2996L4.70049 12.2425L3.28628 13.6567L2.34347 12.7139L3.75769 11.2996ZM15.3337 7.33317V8.6665H13.3337V7.33317H15.3337ZM2.66699 7.33317V8.6665H0.666992V7.33317H2.66699Z" fill="#ECCC26"/>
</g>
<defs>
<clipPath id="clip0_39_792">
<rect width="16" height="16" fill="white"/>
</clipPath>
</defs>
</svg>
