<svg width="12" height="12" viewBox="0 0 12 12" fill="none" xmlns="http://www.w3.org/2000/svg">
<path d="M10.2782 1.72177C11.0593 2.50282 11.0593 3.76915 10.2782 4.5502L6.17815 8.65034C5.857 8.97144 5.43615 9.17374 4.98478 9.22389L3.29547 9.41099L2.14652 10.5606C1.95126 10.7559 1.63468 10.7559 1.43941 10.5606C1.24415 10.3653 1.24415 10.0487 1.43941 9.85349L2.58847 8.70399L2.77615 7.01524C2.8263 6.56389 3.02858 6.14304 3.34971 5.82189L7.4498 1.72177C8.23085 0.940724 9.4972 0.940724 10.2782 1.72177ZM8.15695 2.42888L4.05681 6.52899C3.89625 6.68954 3.79511 6.89999 3.77004 7.12569L3.632 8.36804L4.87435 8.22999C5.10005 8.20489 5.31045 8.10379 5.47105 7.94319L5.68195 7.73199L4.97495 7.02509L5.68205 6.31799L6.38895 7.02499L7.09595 6.31799L6.38915 5.61084L7.09625 4.90375L7.80345 5.61099L8.51045 4.90349L7.8034 4.19664L8.5105 3.48954L9.21745 4.19648L9.57115 3.84309C9.96165 3.45257 9.96165 2.8194 9.57115 2.42888C9.1806 2.03835 8.54745 2.03835 8.15695 2.42888Z" fill="#BDBDBD"/>
</svg>
