<svg width="16" height="16" viewBox="0 0 16 16" fill="none" xmlns="http://www.w3.org/2000/svg">
<path d="M0 0.883022C0 0.395342 0.364248 0 0.79344 0H15.2066C15.6448 0 16 0.395511 16 0.883022V15.117C16 15.6046 15.6358 16 15.2066 16H0.79344C0.35524 16 0 15.6045 0 15.117V0.883022ZM1.6 1.77778V14.2222H14.4V1.77778H1.6ZM6.89752 4.81297L10.8006 7.70418C10.9477 7.81307 10.9874 8.03387 10.8894 8.19724C10.8659 8.23627 10.8358 8.26978 10.8006 8.29582L6.89752 11.187C6.75048 11.296 6.55176 11.2518 6.45376 11.0884C6.41872 11.03 6.4 10.9614 6.4 10.8912V5.10881C6.4 4.91244 6.54328 4.75325 6.72 4.75325C6.7832 4.75325 6.84496 4.77403 6.89752 4.81297Z" fill="#808080"/>
</svg>
